# xmcd
#
# Track frame offsets:
#	150
#	15550
#	33970
#	52700
#	70115
#	85769
#	106093
#	121715
#	136797
#	150376
#	166611
#	181573
#	195519
#	213453
#	226494
#	241336
#	255473
#
# Disc length: 3623 seconds
#
# Revision: 2
# Processed by: cddbd v1.5.1PL0 Copyright (c) Steve Scherf et al.
# Submitted via: audiograbber 1.83.01
#
DISCID=ba0e2511
DTITLE=Various Artists CDX - CDX 347
DYEAR=2004
DGENRE=Country
TTITLE0=Oak Ridge Boys - Bad Case Of Missing You
TTITLE1=SheDaisy - Come Home Soon
TTITLE2=Kellie Coffey - Dance With My Father
TTITLE3=Keith Urban - Days Go By
TTITLE4=Rascal Flatts - Feels Like Today
TTITLE5=John MIchael Montgomery - Goes good with beer
TTITLE6=Gretchen Wilson - Here For The Party (radio edit)
TTITLE7=Gretchen Wilson - Here For The Party (album version)
TTITLE8=Shannon Lawson - Just Like A Redneck
TTITLE9=Hal Ketchum - My Love Will Not Change
TTITLE10=EW - A Beautiful Day For Goodbye
TTITLE11=Billy McKnight - All American
TTITLE12=Ghost Riders - G.R.I.T.S.
TTITLE13=Memarie - I Know You By Heart
TTITLE14=Joe Bonson and Coffee Run - Jesus And Bartenders
TTITLE15=Michael Chain - Just A California Thing
TTITLE16=Zona Jones - Whiskey Kind Of Way
EXTD=
EXTT0=
EXTT1=
EXTT2=
EXTT3=
EXTT4=
EXTT5=
EXTT6=
EXTT7=
EXTT8=
EXTT9=
EXTT10=
EXTT11=
EXTT12=
EXTT13=
EXTT14=
EXTT15=
EXTT16=
PLAYORDER=
